<?xml version="1.0" encoding="UTF-8" standalone="no"?>
<!DOCTYPE svg PUBLIC "-//W3C//DTD SVG 1.1//EN" "http://www.w3.org/Graphics/SVG/1.1/DTD/svg11.dtd">
<svg width="100%" height="100%" viewBox="0 0 1586 1199" version="1.1" xmlns="http://www.w3.org/2000/svg" xmlns:xlink="http://www.w3.org/1999/xlink" xml:space="preserve" xmlns:serif="http://www.serif.com/" style="fill-rule:evenodd;clip-rule:evenodd;stroke-linejoin:round;stroke-miterlimit:2;">
    <g transform="matrix(1,0,0,1,0.589219,0.178782)">
        <g id="Patterns">
            <g id="Aare">
                <g id="Shape">
                    <path d="M1543.7,477.112C1543.7,458.099 1528.3,442.686 1509.29,442.686C1490.27,442.686 1474.87,458.099 1474.87,477.112C1474.87,496.125 1490.27,511.538 1509.29,511.538C1528.3,511.538 1543.7,496.125 1543.7,477.112ZM1509.29,401.375C1551.11,401.375 1585,435.283 1585,477.112C1585,518.941 1551.11,552.849 1509.29,552.849C1467.46,552.849 1433.57,518.941 1433.57,477.112C1433.57,435.283 1467.46,401.375 1509.29,401.375Z" style="fill:rgb(253,98,52);"/>
                    <path d="M1507.81,497.446C1496.43,497.446 1487.19,488.21 1487.19,476.817C1487.19,465.425 1496.43,456.189 1507.81,456.189C1519.2,456.189 1528.43,465.425 1528.43,476.817C1528.43,488.21 1519.2,497.446 1507.81,497.446Z" style="fill:rgb(70,60,116);"/>
                    <path d="M449.574,663.949C449.574,705.778 415.72,739.686 373.958,739.686L236.473,739.686C194.711,739.686 160.857,705.778 160.857,663.949C160.857,622.12 194.711,588.212 236.473,588.212L373.958,588.212C415.72,588.212 449.574,622.12 449.574,663.949ZM373.958,698.375C392.94,698.375 408.329,682.962 408.329,663.949C408.329,644.936 392.94,629.523 373.958,629.523L236.473,629.523C217.491,629.523 202.102,644.936 202.102,663.949C202.102,682.962 217.491,698.375 236.473,698.375L373.958,698.375Z" style="fill:rgb(180,213,30);"/>
                    <path d="M350.88,924.111C369.887,924.111 385.296,908.698 385.296,889.686C385.296,870.673 369.887,855.26 350.88,855.26C331.873,855.26 316.464,870.673 316.464,889.686C316.464,901.093 307.219,910.341 295.815,910.341C284.411,910.341 275.165,901.093 275.165,889.686C275.165,847.857 309.064,813.949 350.88,813.949C392.697,813.949 426.595,847.857 426.595,889.686C426.595,931.514 392.697,965.422 350.88,965.422C339.476,965.422 330.231,956.174 330.231,944.767C330.231,933.36 339.476,924.111 350.88,924.111Z" style="fill:rgb(229,224,213);fill-rule:nonzero;"/>
                    <path d="M302.331,643.615C327.716,643.615 348.126,623.205 348.126,598.232C348.126,573.259 327.716,552.849 302.331,552.849C288.307,552.849 275.794,559.068 267.374,568.912C259.962,577.578 246.913,578.608 238.228,571.212C229.543,563.816 228.51,550.795 235.923,542.13C251.888,523.462 275.736,511.591 302.331,511.591C350.367,511.591 389.474,550.289 389.474,598.232C389.474,646.174 350.367,684.872 302.331,684.872C290.914,684.872 281.657,675.636 281.657,664.244C281.657,652.851 290.914,643.615 302.331,643.615Z" style="fill:rgb(229,224,213);fill-rule:nonzero;"/>
                    <path d="M630.348,112.773C643.788,99.365 643.788,77.628 630.348,64.22C616.907,50.813 595.117,50.813 581.677,64.22C568.236,77.628 568.236,99.365 581.677,112.773C589.741,120.817 589.741,133.86 581.677,141.904C573.612,149.948 560.537,149.948 552.474,141.904C522.905,112.408 522.905,64.585 552.474,35.089C582.041,5.593 629.981,5.593 659.55,35.089C689.119,64.585 689.119,112.408 659.55,141.904C651.486,149.948 638.412,149.948 630.348,141.904C622.283,133.86 622.283,120.817 630.348,112.773Z" style="fill:rgb(70,60,116);"/>
                    <path d="M553.425,113.311C561.479,105.255 574.536,105.255 582.59,113.311C590.644,121.367 590.644,134.428 582.59,142.484C574.536,150.541 561.479,150.541 553.425,142.484C545.371,134.428 545.371,121.367 553.425,113.311Z" style="fill:rgb(253,98,52);"/>
                    <path d="M79.588,538.062C98.622,537.814 113.851,522.202 113.603,503.19C113.356,484.178 97.725,468.966 78.692,469.214C67.272,469.362 57.894,460.235 57.745,448.828C57.597,437.421 66.734,428.053 78.154,427.904C120.027,427.36 154.414,460.826 154.958,502.653C155.503,544.479 122,578.826 80.126,579.37C68.706,579.518 59.328,570.391 59.179,558.983C59.031,547.577 68.168,538.209 79.588,538.062Z" style="fill:rgb(255,199,53);"/>
                    <path d="M449.574,668.369C449.574,720.777 492.046,763.261 544.439,763.261C555.828,763.261 565.061,772.497 565.061,783.89C565.061,795.283 555.828,804.519 544.439,804.519C469.268,804.519 408.329,743.562 408.329,668.369C408.329,656.977 417.562,647.741 428.952,647.741C440.341,647.741 449.574,656.977 449.574,668.369Z" style="fill:rgb(229,224,213);fill-rule:nonzero;"/>
                    <path d="M869.647,51.358C793.568,51.358 731.892,113.051 731.892,189.154C731.892,200.569 722.64,209.823 711.228,209.823C699.817,209.823 690.565,200.569 690.565,189.154C690.565,90.221 770.743,10.02 869.647,10.02C881.059,10.02 890.31,19.274 890.31,30.689C890.31,42.104 881.059,51.358 869.647,51.358Z" style="fill:rgb(255,199,53);"/>
                    <path d="M1066.44,178.564C1066.44,108.615 1009.75,51.909 939.826,51.909C928.425,51.909 919.182,42.664 919.182,31.259C919.182,19.854 928.425,10.609 939.826,10.609C1032.56,10.609 1107.73,85.805 1107.73,178.564C1107.73,189.968 1098.49,199.214 1087.09,199.214C1075.69,199.214 1066.44,189.968 1066.44,178.564Z" style="fill:rgb(180,213,30);"/>
                    <path d="M422.47,570.53C422.47,515.844 378.152,471.513 323.481,471.513C312.092,471.513 302.859,462.277 302.859,450.884C302.859,439.492 312.092,430.255 323.481,430.255C400.931,430.255 463.716,493.059 463.716,570.53C463.716,581.923 454.482,591.159 443.093,591.159C431.704,591.159 422.47,581.923 422.47,570.53Z" style="fill:rgb(255,199,53);"/>
                    <path d="M58.924,559.011C58.776,547.619 67.888,538.263 79.276,538.116C90.665,537.967 100.017,547.082 100.166,558.474C100.314,569.866 91.201,579.221 79.813,579.37C68.424,579.518 59.072,570.403 58.924,559.011Z" style="fill:rgb(253,98,52);"/>
                    <path d="M295.788,911.788C284.399,911.788 275.165,902.552 275.165,891.159C275.165,879.767 284.399,870.53 295.788,870.53C307.177,870.53 316.411,879.767 316.411,891.159C316.411,902.552 307.177,911.788 295.788,911.788Z" style="fill:rgb(253,98,52);"/>
                    <path d="M428.952,688.998C417.562,688.998 408.329,679.762 408.329,668.369C408.329,656.977 417.562,647.741 428.952,647.741C440.341,647.741 449.574,656.977 449.574,668.369C449.574,679.762 440.341,688.998 428.952,688.998Z" style="fill:rgb(253,98,52);"/>
                    <path d="M181.48,686.051C170.09,686.051 160.857,676.815 160.857,665.422C160.857,654.03 170.09,644.794 181.48,644.794C192.869,644.794 202.102,654.03 202.102,665.422C202.102,676.815 192.869,686.051 181.48,686.051Z" style="fill:rgb(253,98,52);"/>
                    <path d="M577.971,661.591C577.971,642.579 562.562,627.166 543.555,627.166C524.546,627.166 509.139,642.579 509.139,661.591C509.139,680.604 524.546,696.017 543.555,696.017C562.562,696.017 577.971,680.604 577.971,661.591ZM543.555,585.855C585.37,585.855 619.27,619.763 619.27,661.591C619.27,703.42 585.37,737.328 543.555,737.328C501.738,737.328 467.84,703.42 467.84,661.591C467.84,619.763 501.738,585.855 543.555,585.855Z" style="fill:rgb(255,199,53);"/>
                    <path d="M635.768,248.723C635.768,260.116 645.013,269.352 656.42,269.352C675.431,269.352 690.842,284.745 690.842,303.733L690.842,441.257C690.842,460.245 675.431,475.639 656.42,475.639C645.013,475.639 635.768,484.875 635.768,496.267C635.768,507.66 645.013,516.896 656.42,516.896C678.12,516.896 697.687,507.779 711.494,493.172C725.3,507.779 744.869,516.896 766.568,516.896L829.903,516.896C871.727,516.896 905.63,483.032 905.63,441.257C905.63,429.865 896.383,420.629 884.977,420.629C873.572,420.629 864.325,429.865 864.325,441.257C864.325,460.245 848.914,475.639 829.903,475.639L766.568,475.639C747.558,475.639 732.147,460.245 732.147,441.257L732.147,303.733C732.147,261.958 698.242,228.094 656.42,228.094C645.013,228.094 635.768,237.33 635.768,248.723Z" style="fill:rgb(180,213,30);"/>
                    <path d="M677.013,496.399C677.013,485.001 667.768,475.76 656.364,475.76C637.358,475.76 621.95,460.36 621.95,441.362L621.95,303.77C621.95,284.773 637.358,269.372 656.364,269.372C667.768,269.372 677.013,260.131 677.013,248.733C677.013,237.335 667.768,228.094 656.364,228.094C614.549,228.094 580.652,261.975 580.652,303.77L580.652,441.362C580.652,443.056 580.707,444.736 580.817,446.401C546.451,456.917 521.459,488.876 521.459,526.67L521.459,606.473C521.459,617.871 530.704,627.112 542.108,627.112C553.511,627.112 562.757,617.871 562.757,606.473L562.757,526.67C562.757,506.797 576.354,490.098 594.757,485.362C608.492,504.539 630.968,517.038 656.364,517.038C667.768,517.038 677.013,507.797 677.013,496.399Z" style="fill:rgb(229,224,213);fill-rule:nonzero;"/>
                    <path d="M656.096,516.949C637.087,516.949 621.68,532.363 621.68,551.375C621.68,570.388 637.087,585.801 656.096,585.801C675.103,585.801 690.511,570.388 690.511,551.375C690.511,539.968 699.756,530.72 711.161,530.72C722.565,530.72 731.81,539.968 731.81,551.375C731.81,593.204 697.911,627.112 656.096,627.112C614.279,627.112 580.381,593.204 580.381,551.375C580.381,509.547 614.279,475.639 656.096,475.639C667.5,475.639 676.745,484.887 676.745,496.294C676.745,507.701 667.5,516.949 656.096,516.949Z" style="fill:rgb(70,60,116);"/>
                    <path d="M1153.16,655.697C1153.16,636.685 1168.56,621.272 1187.57,621.272C1206.58,621.272 1221.99,636.685 1221.99,655.697C1221.99,674.71 1206.58,690.123 1187.57,690.123C1176.17,690.123 1166.92,699.371 1166.92,710.779C1166.92,722.186 1176.17,731.434 1187.57,731.434C1229.39,731.434 1263.29,697.526 1263.29,655.697C1263.29,613.869 1229.39,579.961 1187.57,579.961C1145.76,579.961 1111.86,613.869 1111.86,655.697C1111.86,667.105 1121.1,676.353 1132.51,676.353C1143.91,676.353 1153.16,667.105 1153.16,655.697Z" style="fill:rgb(229,224,213);fill-rule:nonzero;"/>
                    <path d="M656.39,516.896C645,516.896 635.768,507.66 635.768,496.267C635.768,484.875 645,475.639 656.39,475.639C667.78,475.639 677.013,484.875 677.013,496.267C677.013,507.66 667.78,516.896 656.39,516.896Z" style="fill:rgb(253,98,52);"/>
                    <path d="M656.39,269.352C645,269.352 635.768,260.116 635.768,248.723C635.768,237.33 645,228.094 656.39,228.094C667.78,228.094 677.013,237.33 677.013,248.723C677.013,260.116 667.78,269.352 656.39,269.352Z" style="fill:rgb(253,98,52);"/>
                    <path d="M542.082,627.112C530.693,627.112 521.459,617.876 521.459,606.483C521.459,595.091 530.693,585.855 542.082,585.855C553.471,585.855 562.704,595.091 562.704,606.483C562.704,617.876 553.471,627.112 542.082,627.112Z" style="fill:rgb(253,98,52);"/>
                    <path d="M543.26,681.925C531.871,681.925 522.638,672.689 522.638,661.297C522.638,649.904 531.871,640.668 543.26,640.668C554.649,640.668 563.883,649.904 563.883,661.297C563.883,672.689 554.649,681.925 543.26,681.925Z" style="fill:rgb(70,60,116);"/>
                    <path d="M1409.24,478.339C1409.24,520.141 1375.34,554.028 1333.51,554.028L1195.83,554.028C1154.01,554.028 1120.11,520.141 1120.11,478.339C1120.11,436.537 1154.01,402.65 1195.83,402.65L1239.89,402.65L1239.89,359.301C1239.89,317.5 1273.79,283.612 1315.62,283.612L1453.3,283.612C1472.31,283.612 1487.72,268.209 1487.72,249.208L1487.72,185.905C1487.72,166.904 1472.31,151.501 1453.3,151.501C1441.9,151.501 1432.65,142.259 1432.65,130.858C1432.65,119.458 1441.9,110.216 1453.3,110.216C1495.13,110.216 1529.02,144.103 1529.02,185.905L1529.02,249.208C1529.02,270.896 1519.9,290.456 1505.27,304.255C1519.9,318.055 1529.02,337.613 1529.02,359.301L1529.02,421.228C1529.02,432.628 1519.77,441.871 1508.37,441.871C1496.97,441.871 1487.72,432.628 1487.72,421.228L1487.72,359.301C1487.72,340.3 1472.31,324.897 1453.3,324.897L1315.62,324.897C1296.61,324.897 1281.19,340.3 1281.19,359.301L1281.19,402.65L1333.51,402.65C1375.34,402.65 1409.24,436.537 1409.24,478.339ZM1195.83,443.935C1176.82,443.935 1161.41,459.338 1161.41,478.339C1161.41,497.339 1176.82,512.743 1195.83,512.743L1333.51,512.743C1352.52,512.743 1367.93,497.339 1367.93,478.339C1367.93,459.338 1352.52,443.935 1333.51,443.935L1195.83,443.935Z" style="fill:rgb(180,213,30);"/>
                    <path d="M1100.16,280.109C1123.65,289.661 1150.25,278.456 1159.69,255.346C1169.12,232.237 1157.95,205.669 1134.46,196.117C1121.49,190.84 1107.56,191.885 1096.05,197.826C1085.91,203.057 1073.45,199.099 1068.21,188.987C1062.97,178.876 1066.94,166.439 1077.07,161.208C1098.9,149.942 1125.45,147.93 1150.06,157.939C1194.5,176.014 1216.06,226.542 1197.94,270.906C1179.83,315.27 1129.02,336.363 1084.57,318.288C1074.01,313.991 1068.93,301.961 1073.24,291.419C1077.54,280.876 1089.6,275.813 1100.16,280.109Z" style="fill:rgb(255,199,53);"/>
                    <path d="M1408.82,482.711C1408.82,535.119 1451.29,577.603 1503.69,577.603C1515.07,577.603 1524.31,586.839 1524.31,598.232C1524.31,609.624 1515.07,618.861 1503.69,618.861C1428.51,618.861 1367.58,557.904 1367.58,482.711C1367.58,471.319 1376.82,462.083 1388.2,462.083C1399.58,462.083 1408.82,471.319 1408.82,482.711Z" style="fill:rgb(255,199,53);"/>
                    <path d="M1388.2,502.161C1376.82,502.161 1367.58,492.925 1367.58,481.532C1367.58,470.14 1376.82,460.904 1388.2,460.904C1399.58,460.904 1408.82,470.14 1408.82,481.532C1408.82,492.925 1399.58,502.161 1388.2,502.161Z" style="fill:rgb(253,98,52);"/>
                    <path d="M635.714,399.649C635.714,380.7 620.305,365.338 601.298,365.338C582.29,365.338 566.883,380.7 566.883,399.649C566.883,411.018 557.637,420.236 546.233,420.236C534.828,420.236 525.584,411.018 525.584,399.649C525.584,357.96 559.482,324.165 601.298,324.165C643.113,324.165 677.013,357.96 677.013,399.649C677.013,411.018 667.768,420.236 656.364,420.236C644.958,420.236 635.714,411.018 635.714,399.649Z" style="fill:rgb(255,199,53);"/>
                    <path d="M974.515,442.675C974.515,423.725 959.107,408.364 940.099,408.364C921.092,408.364 905.684,423.725 905.684,442.675C905.684,454.044 896.438,463.261 885.034,463.261C873.63,463.261 864.385,454.044 864.385,442.675C864.385,400.986 898.283,367.191 940.099,367.191C981.916,367.191 1015.81,400.986 1015.81,442.675C1015.81,454.044 1006.57,463.261 995.165,463.261C983.761,463.261 974.515,454.044 974.515,442.675Z" style="fill:rgb(70,60,116);"/>
                    <path d="M664.663,669.501C725.477,669.501 774.776,620.188 774.776,559.356C774.776,547.95 784.02,538.703 795.423,538.703C806.825,538.703 816.069,547.95 816.069,559.356C816.069,642.999 748.282,710.806 664.663,710.806C653.261,710.806 644.017,701.559 644.017,690.153C644.017,678.748 653.261,669.501 664.663,669.501Z" style="fill:rgb(180,213,30);"/>
                    <path d="M656.39,420.236C645,420.236 635.768,411 635.768,399.607C635.768,388.215 645,378.978 656.39,378.978C667.78,378.978 677.013,388.215 677.013,399.607C677.013,411 667.78,420.236 656.39,420.236Z" style="fill:rgb(253,98,52);"/>
                    <path d="M800.749,289.98C789.36,289.98 780.126,280.744 780.126,269.352C780.126,257.959 789.36,248.723 800.749,248.723C812.138,248.723 821.372,257.959 821.372,269.352C821.372,280.744 812.138,289.98 800.749,289.98Z" style="fill:rgb(253,98,52);"/>
                    <path d="M1114.21,711.984C1114.21,723.377 1123.45,732.613 1134.84,732.613C1146.23,732.613 1155.46,723.377 1155.46,711.984C1155.46,700.592 1146.23,691.356 1134.84,691.356C1123.45,691.356 1114.21,700.592 1114.21,711.984Z" style="fill:rgb(253,98,52);"/>
                    <path d="M1059.42,711.984C1059.42,723.377 1068.65,732.613 1080.04,732.613C1091.43,732.613 1100.66,723.377 1100.66,711.984C1100.66,700.592 1091.43,691.356 1080.04,691.356C1068.65,691.356 1059.42,700.592 1059.42,711.984Z" style="fill:rgb(253,98,52);"/>
                    <path d="M1463.91,1198.23C1422.09,1198.23 1388.2,1164.37 1388.2,1122.59L1388.2,985.069C1388.2,943.294 1422.09,909.43 1463.91,909.43C1505.74,909.43 1539.63,943.294 1539.63,985.069L1539.63,1122.59C1539.63,1164.37 1505.74,1198.23 1463.91,1198.23ZM1498.33,1122.59L1498.33,985.069C1498.33,966.081 1482.93,950.688 1463.91,950.688C1444.9,950.688 1429.5,966.081 1429.5,985.069L1429.5,1122.59C1429.5,1141.58 1444.9,1156.97 1463.91,1156.97C1482.93,1156.97 1498.33,1141.58 1498.33,1122.59Z" style="fill:rgb(180,213,30);"/>
                    <path d="M1484.95,930.088C1484.95,888.374 1518.9,854.558 1560.78,854.558C1572.2,854.558 1581.47,845.335 1581.47,833.959C1581.47,822.582 1572.2,813.36 1560.78,813.36C1496.06,813.36 1443.59,865.621 1443.59,930.088C1443.59,941.465 1452.85,950.688 1464.27,950.688C1475.68,950.688 1484.95,941.465 1484.95,930.088Z" style="fill:rgb(229,224,213);fill-rule:nonzero;"/>
                    <path d="M1484.83,930.059C1484.83,918.665 1475.59,909.43 1464.21,909.43C1452.83,909.43 1443.59,918.665 1443.59,930.059C1443.59,941.451 1452.83,950.688 1464.21,950.688C1475.59,950.688 1484.83,941.451 1484.83,930.059Z" style="fill:rgb(253,98,52);"/>
                    <path d="M1279.49,1088.07C1260.48,1088.07 1245.07,1103.48 1245.07,1122.5C1245.07,1141.51 1260.48,1156.92 1279.49,1156.92C1298.5,1156.92 1313.91,1141.51 1313.91,1122.5C1313.91,1103.48 1298.5,1088.07 1279.49,1088.07ZM1203.78,1122.5C1203.78,1080.67 1237.67,1046.76 1279.49,1046.76C1321.31,1046.76 1355.2,1080.67 1355.2,1122.5C1355.2,1164.32 1321.31,1198.23 1279.49,1198.23C1237.67,1198.23 1203.78,1164.32 1203.78,1122.5Z" style="fill:rgb(255,199,53);"/>
                    <path d="M866.752,988.998C878.147,988.998 887.385,998.258 887.385,1009.68C887.385,1028.72 902.781,1044.15 921.773,1044.15L1059.33,1044.15C1078.32,1044.15 1093.71,1028.72 1093.71,1009.68C1093.71,998.258 1102.95,988.998 1114.35,988.998C1125.74,988.998 1134.98,998.258 1134.98,1009.68C1134.98,1035.06 1122.54,1057.53 1103.43,1071.3C1108.28,1089.09 1124.61,1102.06 1144.61,1102.06L1224.39,1102.06C1235.78,1102.06 1245.02,1111.32 1245.02,1122.74C1245.02,1134.16 1235.78,1143.42 1224.39,1143.42L1144.61,1143.42C1107.29,1143.42 1075.23,1119.44 1064.52,1085.34C1062.8,1085.45 1061.07,1085.51 1059.33,1085.51L921.773,1085.51C879.99,1085.51 846.119,1051.56 846.119,1009.68C846.119,998.258 855.357,988.998 866.752,988.998Z" style="fill:rgb(229,224,213);fill-rule:nonzero;"/>
                    <path d="M697.341,742.633C739.158,742.633 773.056,776.497 773.056,818.271L773.056,955.796C773.056,997.57 739.158,1031.43 697.341,1031.43C655.525,1031.43 621.626,997.57 621.626,955.796L621.626,818.271C621.626,776.497 655.525,742.633 697.341,742.633ZM731.757,818.271C731.757,799.283 716.348,783.89 697.341,783.89C678.334,783.89 662.925,799.283 662.925,818.271L662.925,955.796C662.925,974.784 678.334,990.177 697.341,990.177C716.348,990.177 731.757,974.784 731.757,955.796L731.757,818.271Z" style="fill:rgb(180,213,30);"/>
                    <path d="M866.742,1030.26C878.131,1030.26 887.364,1021.01 887.364,1009.6C887.364,990.581 902.753,975.165 921.735,975.165L1059.22,975.165C1078.2,975.165 1093.59,990.581 1093.59,1009.6C1093.59,1021.01 1102.83,1030.26 1114.21,1030.26C1125.6,1030.26 1134.84,1021.01 1134.84,1009.6C1134.84,987.891 1125.72,968.318 1111.12,954.507C1125.72,940.696 1134.84,921.122 1134.84,899.417L1134.84,836.063C1134.84,794.228 1100.98,760.314 1059.22,760.314C1047.83,760.314 1038.6,769.564 1038.6,780.973C1038.6,792.382 1047.83,801.632 1059.22,801.632C1078.2,801.632 1093.59,817.047 1093.59,836.063L1093.59,899.417C1093.59,918.432 1078.2,933.848 1059.22,933.848L921.737,933.848C921.735,933.848 921.737,933.848 921.737,933.848C879.975,933.848 846.119,967.761 846.119,1009.6C846.119,1021.01 855.352,1030.26 866.742,1030.26Z" style="fill:rgb(180,213,30);"/>
                    <path d="M1134.89,1009.33C1134.89,1028.35 1150.3,1043.76 1169.31,1043.76C1188.31,1043.76 1203.72,1028.35 1203.72,1009.33C1203.72,990.319 1188.31,974.906 1169.31,974.906C1157.9,974.906 1148.66,965.658 1148.66,954.251C1148.66,942.843 1157.9,933.595 1169.31,933.595C1211.12,933.595 1245.02,967.503 1245.02,1009.33C1245.02,1051.16 1211.12,1085.07 1169.31,1085.07C1127.49,1085.07 1093.59,1051.16 1093.59,1009.33C1093.59,997.925 1102.84,988.677 1114.24,988.677C1125.64,988.677 1134.89,997.925 1134.89,1009.33Z" style="fill:rgb(70,60,116);"/>
                    <path d="M959.196,840.177C959.196,821.164 943.787,805.751 924.78,805.751C905.773,805.751 890.364,821.164 890.364,840.177C890.364,859.189 905.773,874.603 924.78,874.603C936.184,874.603 945.429,883.851 945.429,895.258C945.429,906.665 936.184,915.914 924.78,915.914C882.963,915.914 849.065,882.006 849.065,840.177C849.065,798.348 882.963,764.44 924.78,764.44C966.596,764.44 1000.49,798.348 1000.49,840.177C1000.49,851.584 991.249,860.832 979.845,860.832C968.441,860.832 959.196,851.584 959.196,840.177Z" style="fill:rgb(70,60,116);"/>
                    <path d="M677.013,951.805C677.013,926.413 656.609,905.996 631.643,905.996C606.677,905.996 586.273,926.413 586.273,951.805C586.273,965.833 592.49,978.349 602.331,986.772C610.996,994.186 612.025,1007.24 604.632,1015.93C597.238,1024.61 584.221,1025.65 575.558,1018.23C556.896,1002.26 545.028,978.407 545.028,951.805C545.028,903.755 583.715,864.637 631.643,864.637C679.572,864.637 718.258,903.755 718.258,951.805C718.258,963.226 709.025,972.485 697.636,972.485C686.246,972.485 677.013,963.226 677.013,951.805Z" style="fill:rgb(253,98,52);"/>
                    <path d="M1134.84,1009.04C1134.84,1020.43 1125.6,1029.67 1114.21,1029.67C1102.83,1029.67 1093.59,1020.43 1093.59,1009.04C1093.59,997.645 1102.83,988.409 1114.21,988.409C1125.6,988.409 1134.84,997.645 1134.84,1009.04Z" style="fill:rgb(253,98,52);"/>
                    <path d="M887.364,1009.63C887.364,1021.02 878.131,1030.26 866.742,1030.26C855.352,1030.26 846.119,1021.02 846.119,1009.63C846.119,998.234 855.352,988.998 866.742,988.998C878.131,988.998 887.364,998.234 887.364,1009.63Z" style="fill:rgb(253,98,52);"/>
                    <path d="M1245.02,1122.79C1245.02,1134.18 1235.79,1143.42 1224.4,1143.42C1213.01,1143.42 1203.78,1134.18 1203.78,1122.79C1203.78,1111.4 1213.01,1102.16 1224.4,1102.16C1235.79,1102.16 1245.02,1111.4 1245.02,1122.79Z" style="fill:rgb(253,98,52);"/>
                    <path d="M1300.41,1122.2C1300.41,1133.59 1291.17,1142.83 1279.78,1142.83C1268.39,1142.83 1259.16,1133.59 1259.16,1122.2C1259.16,1110.81 1268.39,1101.57 1279.78,1101.57C1291.17,1101.57 1300.41,1110.81 1300.41,1122.2Z" style="fill:rgb(253,98,52);"/>
                    <path d="M1018.21,1030.31C999.269,1030.31 983.912,1045.72 983.912,1064.74C983.912,1083.75 999.269,1099.16 1018.21,1099.16C1029.58,1099.16 1038.79,1108.41 1038.79,1119.82C1038.79,1131.22 1029.58,1140.47 1018.21,1140.47C976.536,1140.47 942.751,1106.56 942.751,1064.74C942.751,1022.91 976.536,988.998 1018.21,988.998C1029.58,988.998 1038.79,998.246 1038.79,1009.65C1038.79,1021.06 1029.58,1030.31 1018.21,1030.31Z" style="fill:rgb(255,199,53);"/>
                    <path d="M1060.56,661.297C1034.32,661.297 1012.35,683.075 1012.35,710.806C1012.35,738.536 1034.32,760.314 1060.56,760.314C1071.97,760.314 1081.22,769.55 1081.22,780.943C1081.22,792.336 1071.97,801.572 1060.56,801.572C1010.73,801.572 971.033,760.547 971.033,710.806C971.033,661.064 1010.73,620.039 1060.56,620.039C1071.97,620.039 1081.22,629.275 1081.22,640.668C1081.22,652.061 1071.97,661.297 1060.56,661.297Z" style="fill:rgb(255,199,53);"/>
                    <path d="M924.47,915.99C872.039,915.99 829.536,958.553 829.536,1011.06C829.536,1052.91 795.657,1086.84 753.864,1086.84C712.071,1086.84 678.191,1052.91 678.191,1011.06C678.191,999.644 687.432,990.391 698.829,990.391C710.227,990.391 719.467,999.644 719.467,1011.06C719.467,1030.08 734.867,1045.5 753.864,1045.5C772.86,1045.5 788.26,1030.08 788.26,1011.06C788.26,935.726 849.244,874.656 924.47,874.656C935.868,874.656 945.108,883.909 945.108,895.323C945.108,906.737 935.868,915.99 924.47,915.99Z" style="fill:rgb(255,199,53);"/>
                    <path d="M701.76,742.633C788.32,742.633 858.493,672.44 858.493,585.855C858.493,574.462 867.726,565.226 879.115,565.226C890.504,565.226 899.738,574.462 899.738,585.855C899.738,695.227 811.1,783.89 701.76,783.89C690.371,783.89 681.138,774.654 681.138,763.261C681.138,751.869 690.371,742.633 701.76,742.633Z" style="fill:rgb(229,224,213);fill-rule:nonzero;"/>
                    <path d="M1309.79,50.181C1235.99,50.181 1176.16,110.026 1176.16,183.848C1176.16,195.264 1166.91,204.519 1155.5,204.519C1144.09,204.519 1134.84,195.264 1134.84,183.848C1134.84,87.194 1213.17,8.841 1309.79,8.841C1321.2,8.841 1330.46,18.095 1330.46,29.511C1330.46,40.927 1321.2,50.181 1309.79,50.181Z" style="fill:rgb(229,224,213);fill-rule:nonzero;"/>
                    <path d="M1273.89,994.303C1273.89,941.895 1231.42,899.411 1179.03,899.411C1167.64,899.411 1158.4,890.174 1158.4,878.782C1158.4,867.389 1167.64,858.153 1179.03,858.153C1254.2,858.153 1315.14,919.11 1315.14,994.303C1315.14,1005.7 1305.9,1014.93 1294.52,1014.93C1283.13,1014.93 1273.89,1005.7 1273.89,994.303Z" style="fill:rgb(253,98,52);"/>
                    <path d="M586.306,852.784C551.433,852.784 523.162,881.063 523.162,915.946C523.162,927.321 513.943,936.542 502.572,936.542C491.2,936.542 481.981,927.321 481.981,915.946C481.981,858.312 528.688,811.591 586.306,811.591C597.677,811.591 606.896,820.813 606.896,832.188C606.896,843.562 597.677,852.784 586.306,852.784Z" style="fill:rgb(255,199,53);"/>
                    <path d="M1038.79,1009.63C1038.79,1021.02 1029.56,1030.26 1018.17,1030.26C1006.78,1030.26 997.548,1021.02 997.548,1009.63C997.548,998.234 1006.78,988.998 1018.17,988.998C1029.56,988.998 1038.79,998.234 1038.79,1009.63Z" style="fill:rgb(253,98,52);"/>
                    <path d="M945.697,895.285C945.697,906.677 936.464,915.914 925.074,915.914C913.685,915.914 904.452,906.677 904.452,895.285C904.452,883.892 913.685,874.656 925.074,874.656C936.464,874.656 945.697,883.892 945.697,895.285Z" style="fill:rgb(253,98,52);"/>
                    <path d="M945.108,726.13C945.108,737.522 935.874,746.758 924.485,746.758C913.096,746.758 903.862,737.522 903.862,726.13C903.862,714.737 913.096,705.501 924.485,705.501C935.874,705.501 945.108,714.737 945.108,726.13Z" style="fill:rgb(253,98,52);"/>
                    <path d="M945.108,670.727C945.108,682.119 935.874,691.356 924.485,691.356C913.096,691.356 903.862,682.119 903.862,670.727C903.862,659.334 913.096,650.098 924.485,650.098C935.874,650.098 945.108,659.334 945.108,670.727Z" style="fill:rgb(253,98,52);"/>
                    <path d="M905.63,443.222C905.63,454.615 896.397,463.851 885.007,463.851C873.618,463.851 864.385,454.615 864.385,443.222C864.385,431.829 873.618,422.593 885.007,422.593C896.397,422.593 905.63,431.829 905.63,443.222Z" style="fill:rgb(253,98,52);"/>
                    <path d="M1081.22,780.943C1081.22,792.336 1071.98,801.572 1060.6,801.572C1049.21,801.572 1039.97,792.336 1039.97,780.943C1039.97,769.55 1049.21,760.314 1060.6,760.314C1071.98,760.314 1081.22,769.55 1081.22,780.943Z" style="fill:rgb(253,98,52);"/>
                    <path d="M433.371,123.129C414.364,123.129 398.955,107.716 398.955,88.703C398.955,69.691 414.364,54.278 433.371,54.278C452.378,54.278 467.787,69.691 467.787,88.703C467.787,107.716 452.378,123.129 433.371,123.129ZM357.656,88.703C357.656,130.532 391.554,164.44 433.371,164.44C475.187,164.44 509.086,130.532 509.086,88.703C509.086,46.875 475.187,12.967 433.371,12.967C391.554,12.967 357.656,46.875 357.656,88.703Z" style="fill:rgb(255,199,53);"/>
                    <path d="M20.623,180.943C32.012,180.943 41.245,190.19 41.245,201.595C41.245,220.605 56.634,236.016 75.616,236.016L213.101,236.016C232.083,236.016 247.472,220.605 247.472,201.595C247.472,190.19 256.706,180.943 268.095,180.943C279.484,180.943 288.717,190.19 288.717,201.595C288.717,243.417 254.863,277.32 213.101,277.32L78.366,277.32C59.384,277.32 43.995,292.731 43.995,311.741L43.995,449.422C43.995,468.432 59.384,483.843 78.366,483.843C89.756,483.843 98.989,493.09 98.989,504.495C98.989,515.901 89.756,525.147 78.366,525.147C36.604,525.147 2.75,491.245 2.75,449.422L2.75,311.741C2.75,290.714 11.308,271.688 25.126,257.966C9.702,244.103 0,223.984 0,201.595C0,190.19 9.233,180.943 20.623,180.943Z" style="fill:rgb(180,213,30);"/>
                    <path d="M218.522,126.321C229.415,92.693 261.074,68.369 298.431,68.369L378.257,68.369C389.658,68.369 398.901,77.584 398.901,88.95C398.901,100.316 389.658,109.53 378.257,109.53L298.431,109.53C278.917,109.53 262.462,122.59 257.383,140.42C276.367,154.133 288.717,176.434 288.717,201.614C288.717,212.983 279.484,222.2 268.095,222.2C256.706,222.2 247.472,212.983 247.472,201.614C247.472,182.665 232.083,167.303 213.101,167.303L75.616,167.303C56.634,167.303 41.245,182.665 41.245,201.614C41.245,212.983 32.012,222.2 20.623,222.2C9.233,222.2 0,212.983 0,201.614C0,159.925 33.855,126.13 75.616,126.13L213.101,126.13C214.924,126.13 216.731,126.194 218.522,126.321L218.522,126.321Z" style="fill:rgb(229,224,213);fill-rule:nonzero;"/>
                    <path d="M288.771,201.866C288.771,182.854 304.18,167.441 323.187,167.441C342.194,167.441 357.603,182.854 357.603,201.866C357.603,220.879 342.194,236.292 323.187,236.292C311.783,236.292 302.537,245.54 302.537,256.948C302.537,268.355 311.783,277.603 323.187,277.603C365.003,277.603 398.901,243.695 398.901,201.866C398.901,160.038 365.003,126.13 323.187,126.13C281.37,126.13 247.472,160.038 247.472,201.866C247.472,213.274 256.718,222.522 268.122,222.522C279.526,222.522 288.771,213.274 288.771,201.866Z" style="fill:rgb(70,60,116);"/>
                    <path d="M288.717,202.161C288.717,190.769 279.484,181.532 268.095,181.532C256.706,181.532 247.472,190.769 247.472,202.161C247.472,213.554 256.706,222.79 268.095,222.79C279.484,222.79 288.717,213.554 288.717,202.161Z" style="fill:rgb(253,98,52);"/>
                    <path d="M41.245,201.572C41.245,190.179 32.012,180.943 20.623,180.943C9.233,180.943 0,190.179 0,201.572C0,212.964 9.233,222.2 20.623,222.2C32.012,222.2 41.245,212.964 41.245,201.572Z" style="fill:rgb(70,60,116);"/>
                    <path d="M268.095,327.112C268.095,315.719 258.861,306.483 247.472,306.483C236.083,306.483 226.849,315.719 226.849,327.112C226.849,338.505 236.083,347.741 247.472,347.741C258.861,347.741 268.095,338.505 268.095,327.112Z" style="fill:rgb(70,60,116);"/>
                    <path d="M268.095,381.925C268.095,370.533 258.861,361.297 247.472,361.297C236.083,361.297 226.849,370.533 226.849,381.925C226.849,393.318 236.083,402.554 247.472,402.554C258.861,402.554 268.095,393.318 268.095,381.925Z" style="fill:rgb(70,60,116);"/>
                    <path d="M447.217,405.501C447.217,394.108 437.984,384.872 426.595,384.872C415.206,384.872 405.972,394.108 405.972,405.501C405.972,416.894 415.206,426.13 426.595,426.13C437.984,426.13 447.217,416.894 447.217,405.501Z" style="fill:rgb(70,60,116);"/>
                    <path d="M503.783,402.554C503.783,391.161 494.549,381.925 483.16,381.925C471.771,381.925 462.537,391.161 462.537,402.554C462.537,413.947 471.771,423.183 483.16,423.183C494.549,423.183 503.783,413.947 503.783,402.554Z" style="fill:rgb(70,60,116);"/>
                    <path d="M503.783,460.314C503.783,448.922 494.549,439.686 483.16,439.686C471.771,439.686 462.537,448.922 462.537,460.314C462.537,471.707 471.771,480.943 483.16,480.943C494.549,480.943 503.783,471.707 503.783,460.314Z" style="fill:rgb(70,60,116);"/>
                    <path d="M398.901,88.998C398.901,77.605 389.668,68.369 378.279,68.369C366.89,68.369 357.656,77.605 357.656,88.998C357.656,100.391 366.89,109.627 378.279,109.627C389.668,109.627 398.901,100.391 398.901,88.998Z" style="fill:rgb(253,98,52);"/>
                    <path d="M454.288,88.998C454.288,77.605 445.055,68.369 433.665,68.369C422.276,68.369 413.043,77.605 413.043,88.998C413.043,100.391 422.276,109.627 433.665,109.627C445.055,109.627 454.288,100.391 454.288,88.998Z" style="fill:rgb(253,98,52);"/>
                    <path d="M199.198,180.889C180.254,180.889 164.897,165.476 164.897,146.464C164.897,127.451 180.254,112.038 199.198,112.038C210.564,112.038 219.779,102.79 219.779,91.382C219.779,79.975 210.564,70.727 199.198,70.727C157.521,70.727 123.736,104.635 123.736,146.464C123.736,188.292 157.521,222.2 199.198,222.2C210.564,222.2 219.779,212.952 219.779,201.545C219.779,190.138 210.564,180.889 199.198,180.889Z" style="fill:rgb(255,199,53);"/>
                    <path d="M96.632,388.998C149.025,388.998 191.496,431.482 191.496,483.89C191.496,495.283 200.73,504.519 212.119,504.519C223.508,504.519 232.742,495.283 232.742,483.89C232.742,408.697 171.803,347.741 96.632,347.741C85.242,347.741 76.009,356.977 76.009,368.369C76.009,379.762 85.242,388.998 96.632,388.998Z" style="fill:rgb(253,98,52);"/>
                    <path d="M100.167,504.519C100.167,493.126 90.934,483.89 79.545,483.89C68.155,483.89 58.922,493.126 58.922,504.519C58.922,515.911 68.155,525.147 79.545,525.147C90.934,525.147 100.167,515.911 100.167,504.519Z" style="fill:rgb(253,98,52);"/>
                    <path d="M1000.49,895.285C1000.49,906.677 991.261,915.914 979.872,915.914C968.483,915.914 959.249,906.677 959.249,895.285C959.249,883.892 968.483,874.656 979.872,874.656C991.261,874.656 1000.49,883.892 1000.49,895.285Z" style="fill:rgb(70,60,116);"/>
                    <path d="M1055.29,895.285C1055.29,906.677 1046.06,915.914 1034.67,915.914C1023.28,915.914 1014.05,906.677 1014.05,895.285C1014.05,883.892 1023.28,874.656 1034.67,874.656C1046.06,874.656 1055.29,883.892 1055.29,895.285Z" style="fill:rgb(70,60,116);"/>
                    <path d="M718.258,763.261C718.258,774.654 709.025,783.89 697.636,783.89C686.246,783.89 677.013,774.654 677.013,763.261C677.013,751.869 686.246,742.633 697.636,742.633C709.025,742.633 718.258,751.869 718.258,763.261Z" style="fill:rgb(253,98,52);"/>
                    <path d="M719.437,1010.81C719.437,1022.2 710.203,1031.43 698.814,1031.43C687.425,1031.43 678.191,1022.2 678.191,1010.81C678.191,999.413 687.425,990.177 698.814,990.177C710.203,990.177 719.437,999.413 719.437,1010.81Z" style="fill:rgb(253,98,52);"/>
                    <path d="M949.301,196.267C925.994,196.267 906.877,215.291 906.877,239.035C906.877,262.777 925.994,281.801 949.301,281.801C1033.99,281.801 1102.43,350.765 1102.43,435.56C1102.43,446.952 1093.18,456.189 1081.77,456.189C1070.36,456.189 1061.12,446.952 1061.12,435.56C1061.12,373.304 1010.93,323.058 949.301,323.058C902.932,323.058 865.563,285.316 865.563,239.035C865.563,192.752 902.932,155.01 949.301,155.01C960.71,155.01 969.958,164.246 969.958,175.639C969.958,187.031 960.71,196.267 949.301,196.267Z" style="fill:rgb(255,199,53);"/>
                    <path d="M1060.6,435.606C1060.6,498.23 1010.53,548.63 949.232,548.63C937.843,548.63 928.61,557.887 928.61,569.305C928.61,580.723 937.843,589.98 949.232,589.98C1033.72,589.98 1101.84,520.662 1101.84,435.606C1101.84,424.188 1092.61,414.931 1081.22,414.931C1069.83,414.931 1060.6,424.188 1060.6,435.606Z" style="fill:rgb(253,98,52);"/>
                    <path d="M1081.22,456.189C1069.83,456.189 1060.6,446.952 1060.6,435.56C1060.6,424.167 1069.83,414.931 1081.22,414.931C1092.61,414.931 1101.84,424.167 1101.84,435.56C1101.84,446.952 1092.61,456.189 1081.22,456.189Z" style="fill:rgb(70,60,116);"/>
                    <path d="M800.749,310.609C812.138,310.609 821.372,319.859 821.372,331.269L821.372,420.794C821.372,432.204 812.138,441.454 800.749,441.454C789.36,441.454 780.126,432.204 780.126,420.794L780.126,331.269C780.126,319.859 789.36,310.609 800.749,310.609Z" style="fill:rgb(180,213,30);"/>
                    <path d="M462.497,194.519C462.497,271.307 400.267,333.555 323.502,333.555C312.101,333.555 302.859,342.8 302.859,354.204C302.859,365.607 312.101,374.853 323.502,374.853C423.068,374.853 503.783,294.114 503.783,194.519C503.783,183.116 494.54,173.87 483.14,173.87C471.739,173.87 462.497,183.116 462.497,194.519Z" style="fill:rgb(180,213,30);"/>
                    <path d="M1141.91,238.703C1141.91,250.096 1132.66,259.332 1121.25,259.332L946.324,259.332C934.914,259.332 925.664,250.096 925.664,238.703C925.664,227.311 934.914,218.075 946.324,218.075L1121.25,218.075C1132.66,218.075 1141.91,227.311 1141.91,238.703Z" style="fill:rgb(229,224,213);fill-rule:nonzero;"/>
                    <path d="M503.783,194.499C503.783,183.106 494.549,173.87 483.16,173.87C471.771,173.87 462.537,183.106 462.537,194.499C462.537,205.892 471.771,215.128 483.16,215.128C494.549,215.128 503.783,205.892 503.783,194.499Z" style="fill:rgb(253,98,52);"/>
                    <path d="M1100.51,194.351C1092.46,202.407 1079.4,202.407 1071.35,194.351C1063.3,186.295 1063.3,173.233 1071.35,165.178C1079.4,157.122 1092.46,157.122 1100.51,165.178C1108.57,173.233 1108.57,186.295 1100.51,194.351Z" style="fill:rgb(70,60,116);"/>
                    <path d="M960.279,132.465C952.225,140.521 939.167,140.521 931.115,132.465C923.061,124.409 923.061,111.347 931.115,103.291C939.167,95.236 952.225,95.236 960.279,103.291C968.333,111.347 968.333,124.409 960.279,132.465Z" style="fill:rgb(70,60,116);"/>
                    <path d="M0,640.668C0,629.275 9.233,620.039 20.623,620.039L86.615,620.039C98.005,620.039 107.238,629.275 107.238,640.668C107.238,652.061 98.005,661.297 86.615,661.297L20.623,661.297C9.233,661.297 0,652.061 0,640.668Z" style="fill:rgb(70,60,116);"/>
                    <path d="M656.39,1195.29C645.001,1195.29 635.768,1186.07 635.768,1174.7L635.768,1115.68C635.768,1104.31 645.001,1095.09 656.39,1095.09C667.78,1095.09 677.013,1104.31 677.013,1115.68L677.013,1174.7C677.013,1186.07 667.78,1195.29 656.39,1195.29Z" style="fill:rgb(180,213,30);"/>
                    <path d="M755.379,1178.78C755.379,1167.39 764.621,1158.15 776.022,1158.15L939.785,1158.15C951.185,1158.15 960.428,1167.39 960.428,1178.78C960.428,1190.17 951.185,1199.41 939.785,1199.41L776.022,1199.41C764.621,1199.41 755.379,1190.17 755.379,1178.78Z" style="fill:rgb(255,199,53);"/>
                    <path d="M0,31.238C0,19.845 9.233,10.609 20.623,10.609L115.487,10.609C126.877,10.609 136.11,19.845 136.11,31.238C136.11,42.631 126.877,51.866 115.487,51.866L20.623,51.866C9.233,51.866 0,42.631 0,31.238Z" style="fill:rgb(253,98,52);"/>
                    <path d="M945.108,1199.41C933.719,1199.41 924.485,1190.17 924.485,1178.78C924.485,1167.39 933.719,1158.15 945.108,1158.15C956.497,1158.15 965.73,1167.39 965.73,1178.78C965.73,1190.17 956.497,1199.41 945.108,1199.41Z" style="fill:rgb(253,98,52);"/>
                    <path d="M885.04,141.389C850.165,141.389 821.896,169.668 821.896,204.551C821.896,215.926 812.677,225.147 801.306,225.147C789.933,225.147 780.716,215.926 780.716,204.551C780.716,146.917 827.423,100.196 885.04,100.196C896.411,100.196 905.63,109.418 905.63,120.793C905.63,132.168 896.411,141.389 885.04,141.389Z" style="fill:rgb(253,98,52);"/>
                    <path d="M786.756,189.932C794.808,181.876 807.867,181.876 815.921,189.932C823.974,197.988 823.974,211.049 815.921,219.105C807.867,227.161 794.808,227.161 786.756,219.105C778.702,211.049 778.702,197.988 786.756,189.932Z" style="fill:rgb(70,60,116);"/>
                    <path d="M1195.53,793.32C1268.42,793.32 1327.51,734.211 1327.51,661.297C1327.51,649.904 1336.75,640.668 1348.13,640.668C1359.52,640.668 1368.76,649.904 1368.76,661.297C1368.76,756.997 1291.2,834.578 1195.53,834.578C1184.14,834.578 1174.9,825.341 1174.9,813.949C1174.9,802.556 1184.14,793.32 1195.53,793.32Z" style="fill:rgb(180,213,30);"/>
                    <path d="M1362.72,675.883C1354.66,683.939 1341.6,683.939 1333.55,675.883C1325.5,667.827 1325.5,654.765 1333.55,646.71C1341.6,638.654 1354.66,638.654 1362.72,646.71C1370.77,654.765 1370.77,667.827 1362.72,675.883Z" style="fill:rgb(70,60,116);"/>
                    <path d="M1421.05,675.883C1412.99,683.939 1399.93,683.939 1391.89,675.883C1383.83,667.827 1383.83,654.765 1391.89,646.71C1399.93,638.654 1412.99,638.654 1421.05,646.71C1429.1,654.765 1429.1,667.827 1421.05,675.883Z" style="fill:rgb(70,60,116);"/>
                    <path d="M1559.04,753.309C1460.17,753.309 1380.02,833.483 1380.02,932.383C1380.02,943.794 1370.77,953.045 1359.36,953.045C1347.95,953.045 1338.71,943.794 1338.71,932.383C1338.71,810.659 1437.35,711.984 1559.04,711.984C1570.44,711.984 1579.7,721.236 1579.7,732.647C1579.7,744.058 1570.44,753.309 1559.04,753.309Z" style="fill:rgb(255,199,53);"/>
                    <path d="M1141.91,238.6C1141.96,249.992 1132.78,259.275 1121.39,259.332C1110,259.39 1100.72,250.201 1100.66,238.807C1100.6,227.414 1109.79,218.133 1121.18,218.075C1132.57,218.017 1141.85,227.207 1141.91,238.6Z" style="fill:rgb(253,98,52);"/>
                    <path d="M1330.46,29.365C1330.52,40.758 1321.33,50.04 1309.94,50.098C1298.55,50.156 1289.27,40.967 1289.21,29.574C1289.15,18.181 1298.34,8.899 1309.73,8.841C1321.12,8.784 1330.4,17.973 1330.46,29.365Z" style="fill:rgb(253,98,52);"/>
                    <path d="M1141.91,31.133C1141.96,42.526 1132.78,51.809 1121.39,51.866C1110,51.924 1100.72,42.735 1100.66,31.342C1100.6,19.949 1109.79,10.667 1121.18,10.609C1132.57,10.552 1141.85,19.741 1141.91,31.133Z" style="fill:rgb(253,98,52);"/>
                    <path d="M1141.91,85.947C1141.96,97.34 1132.78,106.622 1121.39,106.68C1110,106.737 1100.72,97.548 1100.66,86.155C1100.6,74.763 1109.79,65.48 1121.18,65.422C1132.57,65.365 1141.85,74.554 1141.91,85.947Z" style="fill:rgb(253,98,52);"/>
                    <path d="M1548.45,681.925L1466.58,681.925C1455.19,681.925 1445.94,672.689 1445.94,661.297C1445.94,649.904 1455.19,640.668 1466.58,640.668L1548.45,640.668C1559.85,640.668 1569.09,649.904 1569.09,661.297C1569.09,672.689 1559.85,681.925 1548.45,681.925Z" style="fill:rgb(229,224,213);fill-rule:nonzero;"/>
                    <path d="M1579.7,732.613C1579.7,744.006 1570.46,753.242 1559.07,753.242C1547.69,753.242 1538.45,744.006 1538.45,732.613C1538.45,721.22 1547.69,711.984 1559.07,711.984C1570.46,711.984 1579.7,721.22 1579.7,732.613Z" style="fill:rgb(253,98,52);"/>
                    <path d="M1343.96,183.595C1343.96,164.583 1328.55,149.169 1309.54,149.169C1290.53,149.169 1275.12,164.583 1275.12,183.595C1275.12,202.608 1290.53,218.021 1309.54,218.021C1320.94,218.021 1330.19,227.269 1330.19,238.677C1330.19,250.084 1320.94,259.332 1309.54,259.332C1267.72,259.332 1233.83,225.424 1233.83,183.595C1233.83,141.767 1267.72,107.859 1309.54,107.859C1351.36,107.859 1385.26,141.767 1385.26,183.595C1385.26,195.003 1376,204.251 1364.61,204.251C1353.2,204.251 1343.96,195.003 1343.96,183.595Z" style="fill:rgb(70,60,116);"/>
                    <path d="M1450.11,41.311C1431.16,41.311 1415.81,56.724 1415.81,75.737C1415.81,94.75 1431.16,110.163 1450.11,110.163C1461.47,110.163 1470.69,119.41 1470.69,130.818C1470.69,142.225 1461.47,151.473 1450.11,151.473C1408.43,151.473 1374.65,117.565 1374.65,75.737C1374.65,33.908 1408.43,0 1450.11,0C1461.47,0 1470.69,9.248 1470.69,20.655C1470.69,32.063 1461.47,41.311 1450.11,41.311Z" style="fill:rgb(229,224,213);fill-rule:nonzero;"/>
                    <path d="M1331.64,238.703C1331.64,250.096 1322.4,259.332 1311.01,259.332C1299.62,259.332 1290.39,250.096 1290.39,238.703C1290.39,227.311 1299.62,218.075 1311.01,218.075C1322.4,218.075 1331.64,227.311 1331.64,238.703Z" style="fill:rgb(253,98,52);"/>
                    <path d="M1471.87,130.845C1471.87,142.237 1462.63,151.473 1451.25,151.473C1439.86,151.473 1430.62,142.237 1430.62,130.845C1430.62,119.452 1439.86,110.216 1451.25,110.216C1462.63,110.216 1471.87,119.452 1471.87,130.845Z" style="fill:rgb(70,60,116);"/>
                    <path d="M1387.02,238.703C1387.02,250.096 1377.78,259.332 1366.4,259.332C1355.01,259.332 1345.78,250.096 1345.78,238.703C1345.78,227.311 1355.01,218.075 1366.4,218.075C1377.78,218.075 1387.02,227.311 1387.02,238.703Z" style="fill:rgb(70,60,116);"/>
                    <path d="M1441.82,238.703C1441.82,250.096 1432.58,259.332 1421.2,259.332C1409.81,259.332 1400.57,250.096 1400.57,238.703C1400.57,227.311 1409.81,218.075 1421.2,218.075C1432.58,218.075 1441.82,227.311 1441.82,238.703Z" style="fill:rgb(70,60,116);"/>
                    <path d="M1473.64,74.853C1473.64,86.246 1464.4,95.481 1453.02,95.481C1441.63,95.481 1432.39,86.246 1432.39,74.853C1432.39,63.46 1441.63,54.224 1453.02,54.224C1464.4,54.224 1473.64,63.46 1473.64,74.853Z" style="fill:rgb(253,98,52);"/>
                    <path d="M1528.43,74.853C1528.43,86.246 1519.2,95.481 1507.81,95.481C1496.43,95.481 1487.19,86.246 1487.19,74.853C1487.19,63.46 1496.43,54.224 1507.81,54.224C1519.2,54.224 1528.43,63.46 1528.43,74.853Z" style="fill:rgb(253,98,52);"/>
                    <path d="M1583.82,74.853C1583.82,86.246 1574.58,95.481 1563.2,95.481C1551.82,95.481 1542.58,86.246 1542.58,74.853C1542.58,63.46 1551.82,54.224 1563.2,54.224C1574.58,54.224 1583.82,63.46 1583.82,74.853Z" style="fill:rgb(253,98,52);"/>
                    <path d="M1508.4,442.633C1497.02,442.633 1487.78,433.396 1487.78,422.004C1487.78,410.611 1497.02,401.375 1508.4,401.375C1519.79,401.375 1529.02,410.611 1529.02,422.004C1529.02,433.396 1519.79,442.633 1508.4,442.633Z" style="fill:rgb(70,60,116);"/>
                </g>
            </g>
        </g>
    </g>
</svg>
