<?xml version="1.0" encoding="UTF-8" standalone="no"?>
<!DOCTYPE svg PUBLIC "-//W3C//DTD SVG 1.1//EN" "http://www.w3.org/Graphics/SVG/1.1/DTD/svg11.dtd">
<svg width="100%" height="100%" viewBox="0 0 1104 1144" version="1.1" xmlns="http://www.w3.org/2000/svg" xmlns:xlink="http://www.w3.org/1999/xlink" xml:space="preserve" xmlns:serif="http://www.serif.com/" style="fill-rule:evenodd;clip-rule:evenodd;stroke-linejoin:round;stroke-miterlimit:2;">
    <g transform="matrix(1,0,0,1,-482.571,-0.178782)">
        <g transform="matrix(1,0,0,1,0.589219,0.178782)">
            <g id="Patterns">
                <g id="Aare">
                    <g id="Shape">
                        <path d="M1543.7,477.112C1543.7,458.099 1528.3,442.686 1509.29,442.686C1490.27,442.686 1474.87,458.099 1474.87,477.112C1474.87,496.125 1490.27,511.538 1509.29,511.538C1528.3,511.538 1543.7,496.125 1543.7,477.112ZM1509.29,401.375C1551.11,401.375 1585,435.283 1585,477.112C1585,518.941 1551.11,552.849 1509.29,552.849C1467.46,552.849 1433.57,518.941 1433.57,477.112C1433.57,435.283 1467.46,401.375 1509.29,401.375Z" style="fill:rgb(253,98,52);"/>
                        <path d="M1507.81,497.446C1496.43,497.446 1487.19,488.21 1487.19,476.817C1487.19,465.425 1496.43,456.189 1507.81,456.189C1519.2,456.189 1528.43,465.425 1528.43,476.817C1528.43,488.21 1519.2,497.446 1507.81,497.446Z" style="fill:rgb(70,60,116);"/>
                        <path d="M1153.16,655.697C1153.16,636.685 1168.56,621.272 1187.57,621.272C1206.58,621.272 1221.99,636.685 1221.99,655.697C1221.99,674.71 1206.58,690.123 1187.57,690.123C1176.17,690.123 1166.92,699.371 1166.92,710.779C1166.92,722.186 1176.17,731.434 1187.57,731.434C1229.39,731.434 1263.29,697.526 1263.29,655.697C1263.29,613.869 1229.39,579.961 1187.57,579.961C1145.76,579.961 1111.86,613.869 1111.86,655.697C1111.86,667.105 1121.1,676.353 1132.51,676.353C1143.91,676.353 1153.16,667.105 1153.16,655.697Z" style="fill:rgb(229,224,213);fill-rule:nonzero;"/>
                        <path d="M1409.24,478.339C1409.24,520.141 1375.34,554.028 1333.51,554.028L1195.83,554.028C1154.01,554.028 1120.11,520.141 1120.11,478.339C1120.11,436.537 1154.01,402.65 1195.83,402.65L1239.89,402.65L1239.89,359.301C1239.89,317.5 1273.79,283.612 1315.62,283.612L1453.3,283.612C1472.31,283.612 1487.72,268.209 1487.72,249.208L1487.72,185.905C1487.72,166.904 1472.31,151.501 1453.3,151.501C1441.9,151.501 1432.65,142.259 1432.65,130.858C1432.65,119.458 1441.9,110.216 1453.3,110.216C1495.13,110.216 1529.02,144.103 1529.02,185.905L1529.02,249.208C1529.02,270.896 1519.9,290.456 1505.27,304.255C1519.9,318.055 1529.02,337.613 1529.02,359.301L1529.02,421.228C1529.02,432.628 1519.77,441.871 1508.37,441.871C1496.97,441.871 1487.72,432.628 1487.72,421.228L1487.72,359.301C1487.72,340.3 1472.31,324.897 1453.3,324.897L1315.62,324.897C1296.61,324.897 1281.19,340.3 1281.19,359.301L1281.19,402.65L1333.51,402.65C1375.34,402.65 1409.24,436.537 1409.24,478.339ZM1195.83,443.935C1176.82,443.935 1161.41,459.338 1161.41,478.339C1161.41,497.339 1176.82,512.743 1195.83,512.743L1333.51,512.743C1352.52,512.743 1367.93,497.339 1367.93,478.339C1367.93,459.338 1352.52,443.935 1333.51,443.935L1195.83,443.935Z" style="fill:rgb(180,213,30);"/>
                        <path d="M1100.16,280.109C1123.65,289.661 1150.25,278.456 1159.69,255.346C1169.12,232.237 1157.95,205.669 1134.46,196.117C1121.49,190.84 1107.56,191.885 1096.05,197.826C1085.91,203.057 1073.45,199.099 1068.21,188.987C1062.97,178.876 1066.94,166.439 1077.07,161.208C1098.9,149.942 1125.45,147.93 1150.06,157.939C1194.5,176.014 1216.06,226.542 1197.94,270.906C1179.83,315.27 1129.02,336.363 1084.57,318.288C1074.01,313.991 1068.93,301.961 1073.24,291.419C1077.54,280.876 1089.6,275.813 1100.16,280.109Z" style="fill:rgb(255,199,53);"/>
                        <path d="M1408.82,482.711C1408.82,535.119 1451.29,577.603 1503.69,577.603C1515.07,577.603 1524.31,586.839 1524.31,598.232C1524.31,609.624 1515.07,618.861 1503.69,618.861C1428.51,618.861 1367.58,557.904 1367.58,482.711C1367.58,471.319 1376.82,462.083 1388.2,462.083C1399.58,462.083 1408.82,471.319 1408.82,482.711Z" style="fill:rgb(255,199,53);"/>
                        <path d="M1388.2,502.161C1376.82,502.161 1367.58,492.925 1367.58,481.532C1367.58,470.14 1376.82,460.904 1388.2,460.904C1399.58,460.904 1408.82,470.14 1408.82,481.532C1408.82,492.925 1399.58,502.161 1388.2,502.161Z" style="fill:rgb(253,98,52);"/>
                        <path d="M1114.21,711.984C1114.21,723.377 1123.45,732.613 1134.84,732.613C1146.23,732.613 1155.46,723.377 1155.46,711.984C1155.46,700.592 1146.23,691.356 1134.84,691.356C1123.45,691.356 1114.21,700.592 1114.21,711.984Z" style="fill:rgb(253,98,52);"/>
                        <path d="M1059.42,711.984C1059.42,723.377 1068.65,732.613 1080.04,732.613C1091.43,732.613 1100.66,723.377 1100.66,711.984C1100.66,700.592 1091.43,691.356 1080.04,691.356C1068.65,691.356 1059.42,700.592 1059.42,711.984Z" style="fill:rgb(253,98,52);"/>
                        <path d="M1484.95,930.088C1484.95,888.374 1518.9,854.558 1560.78,854.558C1572.2,854.558 1581.47,845.335 1581.47,833.959C1581.47,822.582 1572.2,813.36 1560.78,813.36C1496.06,813.36 1443.59,865.621 1443.59,930.088C1443.59,941.465 1452.85,950.688 1464.27,950.688C1475.68,950.688 1484.95,941.465 1484.95,930.088Z" style="fill:rgb(229,224,213);fill-rule:nonzero;"/>
                        <path d="M1484.83,930.059C1484.83,918.665 1475.59,909.43 1464.21,909.43C1452.83,909.43 1443.59,918.665 1443.59,930.059C1443.59,941.451 1452.83,950.688 1464.21,950.688C1475.59,950.688 1484.83,941.451 1484.83,930.059Z" style="fill:rgb(253,98,52);"/>
                        <path d="M866.752,988.998C878.147,988.998 887.385,998.258 887.385,1009.68C887.385,1028.72 902.781,1044.15 921.773,1044.15L1059.33,1044.15C1078.32,1044.15 1093.71,1028.72 1093.71,1009.68C1093.71,998.258 1102.95,988.998 1114.35,988.998C1125.74,988.998 1134.98,998.258 1134.98,1009.68C1134.98,1035.06 1122.54,1057.53 1103.43,1071.3C1108.28,1089.09 1124.61,1102.06 1144.61,1102.06L1224.39,1102.06C1235.78,1102.06 1245.02,1111.32 1245.02,1122.74C1245.02,1134.16 1235.78,1143.42 1224.39,1143.42L1144.61,1143.42C1107.29,1143.42 1075.23,1119.44 1064.52,1085.34C1062.8,1085.45 1061.07,1085.51 1059.33,1085.51L921.773,1085.51C879.99,1085.51 846.119,1051.56 846.119,1009.68C846.119,998.258 855.357,988.998 866.752,988.998Z" style="fill:rgb(229,224,213);fill-rule:nonzero;"/>
                        <path d="M697.341,742.633C739.158,742.633 773.056,776.497 773.056,818.271L773.056,955.796C773.056,997.57 739.158,1031.43 697.341,1031.43C655.525,1031.43 621.626,997.57 621.626,955.796L621.626,818.271C621.626,776.497 655.525,742.633 697.341,742.633ZM731.757,818.271C731.757,799.283 716.348,783.89 697.341,783.89C678.334,783.89 662.925,799.283 662.925,818.271L662.925,955.796C662.925,974.784 678.334,990.177 697.341,990.177C716.348,990.177 731.757,974.784 731.757,955.796L731.757,818.271Z" style="fill:rgb(180,213,30);"/>
                        <path d="M866.742,1030.26C878.131,1030.26 887.364,1021.01 887.364,1009.6C887.364,990.581 902.753,975.165 921.735,975.165L1059.22,975.165C1078.2,975.165 1093.59,990.581 1093.59,1009.6C1093.59,1021.01 1102.83,1030.26 1114.21,1030.26C1125.6,1030.26 1134.84,1021.01 1134.84,1009.6C1134.84,987.891 1125.72,968.318 1111.12,954.507C1125.72,940.696 1134.84,921.122 1134.84,899.417L1134.84,836.063C1134.84,794.228 1100.98,760.314 1059.22,760.314C1047.83,760.314 1038.6,769.564 1038.6,780.973C1038.6,792.382 1047.83,801.632 1059.22,801.632C1078.2,801.632 1093.59,817.047 1093.59,836.063L1093.59,899.417C1093.59,918.432 1078.2,933.848 1059.22,933.848L921.737,933.848C921.735,933.848 921.737,933.848 921.737,933.848C879.975,933.848 846.119,967.761 846.119,1009.6C846.119,1021.01 855.352,1030.26 866.742,1030.26Z" style="fill:rgb(180,213,30);"/>
                        <path d="M1134.89,1009.33C1134.89,1028.35 1150.3,1043.76 1169.31,1043.76C1188.31,1043.76 1203.72,1028.35 1203.72,1009.33C1203.72,990.319 1188.31,974.906 1169.31,974.906C1157.9,974.906 1148.66,965.658 1148.66,954.251C1148.66,942.843 1157.9,933.595 1169.31,933.595C1211.12,933.595 1245.02,967.503 1245.02,1009.33C1245.02,1051.16 1211.12,1085.07 1169.31,1085.07C1127.49,1085.07 1093.59,1051.16 1093.59,1009.33C1093.59,997.925 1102.84,988.677 1114.24,988.677C1125.64,988.677 1134.89,997.925 1134.89,1009.33Z" style="fill:rgb(70,60,116);"/>
                        <path d="M959.196,840.177C959.196,821.164 943.787,805.751 924.78,805.751C905.773,805.751 890.364,821.164 890.364,840.177C890.364,859.189 905.773,874.603 924.78,874.603C936.184,874.603 945.429,883.851 945.429,895.258C945.429,906.665 936.184,915.914 924.78,915.914C882.963,915.914 849.065,882.006 849.065,840.177C849.065,798.348 882.963,764.44 924.78,764.44C966.596,764.44 1000.49,798.348 1000.49,840.177C1000.49,851.584 991.249,860.832 979.845,860.832C968.441,860.832 959.196,851.584 959.196,840.177Z" style="fill:rgb(70,60,116);"/>
                        <path d="M677.013,951.805C677.013,926.413 656.609,905.996 631.643,905.996C606.677,905.996 586.273,926.413 586.273,951.805C586.273,965.833 592.49,978.349 602.331,986.772C610.996,994.186 612.025,1007.24 604.632,1015.93C597.238,1024.61 584.221,1025.65 575.558,1018.23C556.896,1002.26 545.028,978.407 545.028,951.805C545.028,903.755 583.715,864.637 631.643,864.637C679.572,864.637 718.258,903.755 718.258,951.805C718.258,963.226 709.025,972.485 697.636,972.485C686.246,972.485 677.013,963.226 677.013,951.805Z" style="fill:rgb(253,98,52);"/>
                        <path d="M1134.84,1009.04C1134.84,1020.43 1125.6,1029.67 1114.21,1029.67C1102.83,1029.67 1093.59,1020.43 1093.59,1009.04C1093.59,997.645 1102.83,988.409 1114.21,988.409C1125.6,988.409 1134.84,997.645 1134.84,1009.04Z" style="fill:rgb(253,98,52);"/>
                        <path d="M887.364,1009.63C887.364,1021.02 878.131,1030.26 866.742,1030.26C855.352,1030.26 846.119,1021.02 846.119,1009.63C846.119,998.234 855.352,988.998 866.742,988.998C878.131,988.998 887.364,998.234 887.364,1009.63Z" style="fill:rgb(253,98,52);"/>
                        <path d="M1245.02,1122.79C1245.02,1134.18 1235.79,1143.42 1224.4,1143.42C1213.01,1143.42 1203.78,1134.18 1203.78,1122.79C1203.78,1111.4 1213.01,1102.16 1224.4,1102.16C1235.79,1102.16 1245.02,1111.4 1245.02,1122.79Z" style="fill:rgb(253,98,52);"/>
                        <path d="M1018.21,1030.31C999.269,1030.31 983.912,1045.72 983.912,1064.74C983.912,1083.75 999.269,1099.16 1018.21,1099.16C1029.58,1099.16 1038.79,1108.41 1038.79,1119.82C1038.79,1131.22 1029.58,1140.47 1018.21,1140.47C976.536,1140.47 942.751,1106.56 942.751,1064.74C942.751,1022.91 976.536,988.998 1018.21,988.998C1029.58,988.998 1038.79,998.246 1038.79,1009.65C1038.79,1021.06 1029.58,1030.31 1018.21,1030.31Z" style="fill:rgb(255,199,53);"/>
                        <path d="M924.47,915.99C872.039,915.99 829.536,958.553 829.536,1011.06C829.536,1052.91 795.657,1086.84 753.864,1086.84C712.071,1086.84 678.191,1052.91 678.191,1011.06C678.191,999.644 687.432,990.391 698.829,990.391C710.227,990.391 719.467,999.644 719.467,1011.06C719.467,1030.08 734.867,1045.5 753.864,1045.5C772.86,1045.5 788.26,1030.08 788.26,1011.06C788.26,935.726 849.244,874.656 924.47,874.656C935.868,874.656 945.108,883.909 945.108,895.323C945.108,906.737 935.868,915.99 924.47,915.99Z" style="fill:rgb(255,199,53);"/>
                        <path d="M1273.89,994.303C1273.89,941.895 1231.42,899.411 1179.03,899.411C1167.64,899.411 1158.4,890.174 1158.4,878.782C1158.4,867.389 1167.64,858.153 1179.03,858.153C1254.2,858.153 1315.14,919.11 1315.14,994.303C1315.14,1005.7 1305.9,1014.93 1294.52,1014.93C1283.13,1014.93 1273.89,1005.7 1273.89,994.303Z" style="fill:rgb(253,98,52);"/>
                        <path d="M586.306,852.784C551.433,852.784 523.162,881.063 523.162,915.946C523.162,927.321 513.943,936.542 502.572,936.542C491.2,936.542 481.981,927.321 481.981,915.946C481.981,858.312 528.688,811.591 586.306,811.591C597.677,811.591 606.896,820.813 606.896,832.188C606.896,843.562 597.677,852.784 586.306,852.784Z" style="fill:rgb(255,199,53);"/>
                        <path d="M1038.79,1009.63C1038.79,1021.02 1029.56,1030.26 1018.17,1030.26C1006.78,1030.26 997.548,1021.02 997.548,1009.63C997.548,998.234 1006.78,988.998 1018.17,988.998C1029.56,988.998 1038.79,998.234 1038.79,1009.63Z" style="fill:rgb(253,98,52);"/>
                        <path d="M945.697,895.285C945.697,906.677 936.464,915.914 925.074,915.914C913.685,915.914 904.452,906.677 904.452,895.285C904.452,883.892 913.685,874.656 925.074,874.656C936.464,874.656 945.697,883.892 945.697,895.285Z" style="fill:rgb(253,98,52);"/>
                        <path d="M1000.49,895.285C1000.49,906.677 991.261,915.914 979.872,915.914C968.483,915.914 959.249,906.677 959.249,895.285C959.249,883.892 968.483,874.656 979.872,874.656C991.261,874.656 1000.49,883.892 1000.49,895.285Z" style="fill:rgb(70,60,116);"/>
                        <path d="M1055.29,895.285C1055.29,906.677 1046.06,915.914 1034.67,915.914C1023.28,915.914 1014.05,906.677 1014.05,895.285C1014.05,883.892 1023.28,874.656 1034.67,874.656C1046.06,874.656 1055.29,883.892 1055.29,895.285Z" style="fill:rgb(70,60,116);"/>
                        <path d="M719.437,1010.81C719.437,1022.2 710.203,1031.43 698.814,1031.43C687.425,1031.43 678.191,1022.2 678.191,1010.81C678.191,999.413 687.425,990.177 698.814,990.177C710.203,990.177 719.437,999.413 719.437,1010.81Z" style="fill:rgb(253,98,52);"/>
                        <path d="M1060.6,435.606C1060.6,498.23 1010.53,548.63 949.232,548.63C937.843,548.63 928.61,557.887 928.61,569.305C928.61,580.723 937.843,589.98 949.232,589.98C1033.72,589.98 1101.84,520.662 1101.84,435.606C1101.84,424.188 1092.61,414.931 1081.22,414.931C1069.83,414.931 1060.6,424.188 1060.6,435.606Z" style="fill:rgb(253,98,52);"/>
                        <path d="M1081.22,456.189C1069.83,456.189 1060.6,446.952 1060.6,435.56C1060.6,424.167 1069.83,414.931 1081.22,414.931C1092.61,414.931 1101.84,424.167 1101.84,435.56C1101.84,446.952 1092.61,456.189 1081.22,456.189Z" style="fill:rgb(70,60,116);"/>
                        <path d="M1100.51,194.351C1092.46,202.407 1079.4,202.407 1071.35,194.351C1063.3,186.295 1063.3,173.233 1071.35,165.178C1079.4,157.122 1092.46,157.122 1100.51,165.178C1108.57,173.233 1108.57,186.295 1100.51,194.351Z" style="fill:rgb(70,60,116);"/>
                        <path d="M1195.53,793.32C1268.42,793.32 1327.51,734.211 1327.51,661.297C1327.51,649.904 1336.75,640.668 1348.13,640.668C1359.52,640.668 1368.76,649.904 1368.76,661.297C1368.76,756.997 1291.2,834.578 1195.53,834.578C1184.14,834.578 1174.9,825.341 1174.9,813.949C1174.9,802.556 1184.14,793.32 1195.53,793.32Z" style="fill:rgb(180,213,30);"/>
                        <path d="M1362.72,675.883C1354.66,683.939 1341.6,683.939 1333.55,675.883C1325.5,667.827 1325.5,654.765 1333.55,646.71C1341.6,638.654 1354.66,638.654 1362.72,646.71C1370.77,654.765 1370.77,667.827 1362.72,675.883Z" style="fill:rgb(70,60,116);"/>
                        <path d="M1421.05,675.883C1412.99,683.939 1399.93,683.939 1391.89,675.883C1383.83,667.827 1383.83,654.765 1391.89,646.71C1399.93,638.654 1412.99,638.654 1421.05,646.71C1429.1,654.765 1429.1,667.827 1421.05,675.883Z" style="fill:rgb(70,60,116);"/>
                        <path d="M1559.04,753.309C1460.17,753.309 1380.02,833.483 1380.02,932.383C1380.02,943.794 1370.77,953.045 1359.36,953.045C1347.95,953.045 1338.71,943.794 1338.71,932.383C1338.71,810.659 1437.35,711.984 1559.04,711.984C1570.44,711.984 1579.7,721.236 1579.7,732.647C1579.7,744.058 1570.44,753.309 1559.04,753.309Z" style="fill:rgb(255,199,53);"/>
                        <path d="M1141.91,238.6C1141.96,249.992 1132.78,259.275 1121.39,259.332C1110,259.39 1100.72,250.201 1100.66,238.807C1100.6,227.414 1109.79,218.133 1121.18,218.075C1132.57,218.017 1141.85,227.207 1141.91,238.6Z" style="fill:rgb(253,98,52);"/>
                        <path d="M1548.45,681.925L1466.58,681.925C1455.19,681.925 1445.94,672.689 1445.94,661.297C1445.94,649.904 1455.19,640.668 1466.58,640.668L1548.45,640.668C1559.85,640.668 1569.09,649.904 1569.09,661.297C1569.09,672.689 1559.85,681.925 1548.45,681.925Z" style="fill:rgb(229,224,213);fill-rule:nonzero;"/>
                        <path d="M1579.7,732.613C1579.7,744.006 1570.46,753.242 1559.07,753.242C1547.69,753.242 1538.45,744.006 1538.45,732.613C1538.45,721.22 1547.69,711.984 1559.07,711.984C1570.46,711.984 1579.7,721.22 1579.7,732.613Z" style="fill:rgb(253,98,52);"/>
                        <path d="M1343.96,183.595C1343.96,164.583 1328.55,149.169 1309.54,149.169C1290.53,149.169 1275.12,164.583 1275.12,183.595C1275.12,202.608 1290.53,218.021 1309.54,218.021C1320.94,218.021 1330.19,227.269 1330.19,238.677C1330.19,250.084 1320.94,259.332 1309.54,259.332C1267.72,259.332 1233.83,225.424 1233.83,183.595C1233.83,141.767 1267.72,107.859 1309.54,107.859C1351.36,107.859 1385.26,141.767 1385.26,183.595C1385.26,195.003 1376,204.251 1364.61,204.251C1353.2,204.251 1343.96,195.003 1343.96,183.595Z" style="fill:rgb(70,60,116);"/>
                        <path d="M1450.11,41.311C1431.16,41.311 1415.81,56.724 1415.81,75.737C1415.81,94.75 1431.16,110.163 1450.11,110.163C1461.47,110.163 1470.69,119.41 1470.69,130.818C1470.69,142.225 1461.47,151.473 1450.11,151.473C1408.43,151.473 1374.65,117.565 1374.65,75.737C1374.65,33.908 1408.43,0 1450.11,0C1461.47,0 1470.69,9.248 1470.69,20.655C1470.69,32.063 1461.47,41.311 1450.11,41.311Z" style="fill:rgb(229,224,213);fill-rule:nonzero;"/>
                        <path d="M1331.64,238.703C1331.64,250.096 1322.4,259.332 1311.01,259.332C1299.62,259.332 1290.39,250.096 1290.39,238.703C1290.39,227.311 1299.62,218.075 1311.01,218.075C1322.4,218.075 1331.64,227.311 1331.64,238.703Z" style="fill:rgb(253,98,52);"/>
                        <path d="M1471.87,130.845C1471.87,142.237 1462.63,151.473 1451.25,151.473C1439.86,151.473 1430.62,142.237 1430.62,130.845C1430.62,119.452 1439.86,110.216 1451.25,110.216C1462.63,110.216 1471.87,119.452 1471.87,130.845Z" style="fill:rgb(70,60,116);"/>
                        <path d="M1387.02,238.703C1387.02,250.096 1377.78,259.332 1366.4,259.332C1355.01,259.332 1345.78,250.096 1345.78,238.703C1345.78,227.311 1355.01,218.075 1366.4,218.075C1377.78,218.075 1387.02,227.311 1387.02,238.703Z" style="fill:rgb(70,60,116);"/>
                        <path d="M1441.82,238.703C1441.82,250.096 1432.58,259.332 1421.2,259.332C1409.81,259.332 1400.57,250.096 1400.57,238.703C1400.57,227.311 1409.81,218.075 1421.2,218.075C1432.58,218.075 1441.82,227.311 1441.82,238.703Z" style="fill:rgb(70,60,116);"/>
                        <path d="M1473.64,74.853C1473.64,86.246 1464.4,95.481 1453.02,95.481C1441.63,95.481 1432.39,86.246 1432.39,74.853C1432.39,63.46 1441.63,54.224 1453.02,54.224C1464.4,54.224 1473.64,63.46 1473.64,74.853Z" style="fill:rgb(253,98,52);"/>
                        <path d="M1528.43,74.853C1528.43,86.246 1519.2,95.481 1507.81,95.481C1496.43,95.481 1487.19,86.246 1487.19,74.853C1487.19,63.46 1496.43,54.224 1507.81,54.224C1519.2,54.224 1528.43,63.46 1528.43,74.853Z" style="fill:rgb(253,98,52);"/>
                        <path d="M1583.82,74.853C1583.82,86.246 1574.58,95.481 1563.2,95.481C1551.82,95.481 1542.58,86.246 1542.58,74.853C1542.58,63.46 1551.82,54.224 1563.2,54.224C1574.58,54.224 1583.82,63.46 1583.82,74.853Z" style="fill:rgb(253,98,52);"/>
                        <path d="M1508.4,442.633C1497.02,442.633 1487.78,433.396 1487.78,422.004C1487.78,410.611 1497.02,401.375 1508.4,401.375C1519.79,401.375 1529.02,410.611 1529.02,422.004C1529.02,433.396 1519.79,442.633 1508.4,442.633Z" style="fill:rgb(70,60,116);"/>
                    </g>
                </g>
            </g>
        </g>
    </g>
</svg>
